<?xml version="1.0" encoding="utf-8"?>
<!-- Generator: Adobe Illustrator 25.4.1, SVG Export Plug-In . SVG Version: 6.00 Build 0)  -->
<svg version="1.1" id="Layer_1" xmlns="http://www.w3.org/2000/svg" xmlns:xlink="http://www.w3.org/1999/xlink" x="0px" y="0px"
	 viewBox="0 0 1276.6 78" style="enable-background:new 0 0 1276.6 78;" xml:space="preserve">
<style type="text/css">
	.st0{enable-background:new    ;}
	.st1{fill:#FFFFFF;}
</style>
<g id="Layer_2_00000082327001397313722260000015424002618713803138_">
</g>
<g id="Layer_1_00000069358407979600507110000003297570511205032627_">
	<g class="st0">
		<path class="st1" d="M19,6.1c14.6,0,25.2,11.7,25.2,27.9c0,16.2-10.5,27.9-25.2,27.9H1.4v-0.7l7.5-5.1V11.9L1.4,6.8V6.1H19z
			 M19,55.8c11.4,0,19.7-9.1,19.7-21.8c0-12.6-8.3-21.8-19.7-21.8h-3.4c-1,0-1.7,0.7-1.7,1.7v40.1c0,1,0.7,1.7,1.7,1.7H19z"/>
		<path class="st1" d="M81.9,52.4h-0.7c-4.5,6.1-12.6,10.5-19.4,10.5c-6.3,0-10.9-4.4-10.9-10.5c0-9.9,11.2-17,26.5-17
			c8.2,0,4.7-7.8-7.5-7.8c-5,0-11.4,1.3-15,3.1v-6.8c2.9-1.4,8.2-2.4,12.6-2.4c11,0,19,5.8,19,13.9v18.4l6.8,7.5v0.7H80.9L81.9,52.4
			z M77.5,39.8c-12,0-20.7,5.3-20.7,12.6c0,2.6,2.2,4.4,5.1,4.4c6.5,0,14.2-3.7,18.4-8.8C84,43.2,82.9,39.8,77.5,39.8z"/>
		<path class="st1" d="M121.4,61.2l2-2c3.3-3.3,5.8-9.9,5.8-15.6c0-8.8-4.3-15.3-10.2-15.3s-10.2,6.5-10.2,15.3
			c0,5.7,2.4,12.3,5.8,15.6l2,2v0.7H96.2v-0.7l8.2-4.8V29.2l-8.2-6.1v-0.7h12.9v6.8h0.7c1.8-4.6,6.5-7.8,11.2-7.8
			c7.3,0,12.6,6.5,12.6,15.3v19.7l8.2,4.8v0.7h-20.4V61.2z"/>
		<path class="st1" d="M184.3,50.7v6.8c-3.7,3.1-10.3,5.4-15.6,5.4c-13,0-22.4-8.3-22.4-19.7c0-12.6,10.5-21.8,25.2-21.8
			c5,0,10.4,1.6,12.9,3.7V32c-2.7-2.6-8.1-4.4-12.9-4.4c-11.8,0-20.2,6.6-20.1,15.6c0.1,7.9,7.3,13.6,17.3,13.6
			C173.9,56.8,180.5,54.2,184.3,50.7z"/>
		<path class="st1" d="M222.4,57.1l14.3,4.1v0.7h-44.9v-0.7l17.7-5.1V28.2l-10.9-5.1v-0.7h18.4l-1.4,6.1c-1,4.5-1.7,11.1-1.7,15.6
			C213.9,50.3,217.3,55.7,222.4,57.1z M209.4,5.1c7.9,0,13.6,2,13.6,4.8s-5.7,4.8-13.6,4.8c-7.9,0-13.6-2-13.6-4.8
			S201.5,5.1,209.4,5.1z"/>
		<path class="st1" d="M264.2,61.2l2-2c3.3-3.3,5.8-9.9,5.8-15.6c0-8.8-4.3-15.3-10.2-15.3c-5.9,0-10.2,6.5-10.2,15.3
			c0,5.7,2.4,12.3,5.8,15.6l2,2v0.7H239v-0.7l8.2-4.8V29.2l-8.2-6.1v-0.7h12.9v6.8h0.7c1.8-4.6,6.5-7.8,11.2-7.8
			c7.3,0,12.6,6.5,12.6,15.3v19.7l8.2,4.8v0.7h-20.4V61.2z"/>
		<path class="st1" d="M318.2,57.1c-2,0-4.1,5.8-12.2,5.8c-9.9,0-17-8.7-17-20.7c0-12,7.3-20.7,17.3-20.7c5.4,0,10.9,3.7,12.9,8.8
			h0.7v-7.8h11.6v0.7l-6.8,7.5v28.2c0,11-8.2,19-19.4,19c-4.1,0-8.6-1.4-10.9-3.4v-6.8c2.7,2.4,7.2,4.1,10.9,4.1
			c8.5,0,14.6-5.4,14.6-12.9C319.9,57.9,319.2,57.1,318.2,57.1z M319.6,47.1c0.8-2.3,0.8-5.8,0-8.4c-2.2-6.5-7.8-11.2-13.3-11.2
			c-7.1,0-12.2,6.1-12.2,14.6c0,8.5,5,14.6,11.9,14.6C311.7,56.8,317.4,52.7,319.6,47.1z"/>
		<path class="st1" d="M412.8,57.1l14.3,4.1v0.7h-44.9v-0.7l17.7-5.1V28.2L389,23.1v-0.7h18.4l-1.4,6.1c-1,4.5-1.7,11.1-1.7,15.6
			C404.3,50.3,407.7,55.7,412.8,57.1z M399.8,5.1c7.9,0,13.6,2,13.6,4.8s-5.7,4.8-13.6,4.8s-13.6-2-13.6-4.8S391.9,5.1,399.8,5.1z"
			/>
		<path class="st1" d="M454.6,61.2l2-2c3.3-3.3,5.8-9.9,5.8-15.6c0-8.8-4.3-15.3-10.2-15.3c-5.9,0-10.2,6.5-10.2,15.3
			c0,5.7,2.4,12.3,5.8,15.6l2,2v0.7h-20.4v-0.7l8.2-4.8V29.2l-8.2-6.1v-0.7h12.9v6.8h0.7c1.8-4.6,6.5-7.8,11.2-7.8
			c7.3,0,12.6,6.5,12.6,15.3v19.7l8.2,4.8v0.7h-20.4V61.2z"/>
		<path class="st1" d="M566.8,49.3v7.1c-3.9,3.7-10.7,6.5-16.3,6.5c-8.7,0-15-6.1-15-14.6V27.9h-11.9v-0.7l20.7-12.9v8.2h22.4v5.4
			h-20.4c-2.4,0-4.1,1.7-4.1,4.1c0,7.3-2.4,10.7-2.4,16.3c0,4.9,4.4,8.5,10.5,8.5C555.3,56.8,562.1,53.7,566.8,49.3z"/>
		<path class="st1" d="M597.4,61.2l2-2c3.3-3.3,5.8-9.9,5.8-15.6c0-8.8-4.3-15.3-10.2-15.3c-5.9,0-10.2,6.5-10.2,15.3
			c0,5.7,2.4,12.3,5.8,15.6l2,2v0.7h-20.4v-0.7l8.2-4.8V12.9l-8.2-6.1V6.1h13.6l-0.7,23.1h0.7c1.8-4.6,6.5-7.8,11.2-7.8
			c7.3,0,12.6,6.5,12.6,15.3v19.7l8.2,4.8v0.7h-20.4V61.2z"/>
		<path class="st1" d="M627.4,44.2c1,7.4,7.1,12.6,15.2,12.6c4.8,0,10.6-2.2,13.9-5.1v6.8c-3,2.6-8.8,4.4-13.9,4.4
			c-11.8,0-20.4-8.7-20.4-20.7c0-12,10-20.7,23.8-20.7c9,0,15.6,6.1,15.6,14.6v8.2H627.4z M650.4,38.8c3.1-0.2,5.4-2.2,5.4-4.8
			c0-3.7-4-6.5-9.5-6.5c-10.1,0-17.7,5.2-18.9,12.6L650.4,38.8z"/>
		<path class="st1" d="M721.8,56.1V14.3l-2.7-8.2h9.5l8.8,40.1h0.7L747,6.1h9.5l-2.7,8.2v41.8l6.8,5.1v0.7h-18.4v-0.7l6.8-5.1V23.5
			h-0.7l-10.5,39.4l-10.5-39.4h-0.7v32.6l6.8,5.1v0.7H715v-0.7L721.8,56.1z"/>
		<path class="st1" d="M805.8,42.2c0,12-8.6,20.7-20.4,20.7c-11.8,0-20.4-8.7-20.4-20.7c0-12,8.6-20.7,20.4-20.7
			C797.2,21.4,805.8,30.1,805.8,42.2z M770.1,42.2c0,8.5,6.5,14.6,15.3,14.6c8.8,0,15.3-6.1,15.3-14.6c0-8.5-6.5-14.6-15.3-14.6
			C776.6,27.5,770.1,33.7,770.1,42.2z"/>
		<path class="st1" d="M853.4,42.2c0,12-8.6,20.7-20.4,20.7c-11.8,0-20.4-8.7-20.4-20.7c0-12,8.6-20.7,20.4-20.7
			C844.8,21.4,853.4,30.1,853.4,42.2z M817.7,42.2c0,8.5,6.5,14.6,15.3,14.6c8.8,0,15.3-6.1,15.3-14.6c0-8.5-6.5-14.6-15.3-14.6
			C824.2,27.5,817.7,33.7,817.7,42.2z"/>
		<path class="st1" d="M883,61.2l2-2c3.3-3.3,5.8-9.9,5.8-15.6c0-8.8-4.3-15.3-10.2-15.3c-5.9,0-10.2,6.5-10.2,15.3
			c0,5.7,2.4,12.3,5.8,15.6l2,2v0.7h-20.4v-0.7l8.2-4.8V29.2l-8.2-6.1v-0.7h12.9v6.8h0.7c1.8-4.6,6.5-7.8,11.2-7.8
			c7.3,0,12.6,6.5,12.6,15.3v19.7l8.2,4.8v0.7H883V61.2z"/>
		<path class="st1" d="M939.8,58.5l9.5,2.7v0.7h-43.5v-0.7l18.4-5.1V11.9l-12.2-5.1V6.1h19.7l-1.4,10.2c-1,7.6-1.7,18.3-1.7,25.5
			C928.5,49.6,933.2,56.6,939.8,58.5z"/>
		<path class="st1" d="M984,57.1l14.3,4.1v0.7h-44.9v-0.7l17.7-5.1V28.2l-10.9-5.1v-0.7h18.4l-1.4,6.1c-1,4.5-1.7,11.1-1.7,15.6
			C975.5,50.3,978.9,55.7,984,57.1z M971,5.1c7.9,0,13.6,2,13.6,4.8s-5.7,4.8-13.6,4.8s-13.6-2-13.6-4.8S963.1,5.1,971,5.1z"/>
		<path class="st1" d="M1032.2,57.1c-2,0-4.1,5.8-12.2,5.8c-9.9,0-17-8.7-17-20.7c0-12,7.3-20.7,17.3-20.7c5.4,0,10.9,3.7,12.9,8.8
			h0.7v-7.8h11.6v0.7l-6.8,7.5v28.2c0,11-8.2,19-19.4,19c-4.1,0-8.6-1.4-10.9-3.4v-6.8c2.7,2.4,7.2,4.1,10.9,4.1
			c8.5,0,14.6-5.4,14.6-12.9C1033.9,57.9,1033.2,57.1,1032.2,57.1z M1033.6,47.1c0.8-2.3,0.8-5.8,0-8.4c-2.2-6.5-7.8-11.2-13.3-11.2
			c-7.1,0-12.2,6.1-12.2,14.6c0,8.5,5,14.6,11.9,14.6C1025.7,56.8,1031.4,52.7,1033.6,47.1z"/>
		<path class="st1" d="M1073.4,61.2l2-2c3.3-3.3,5.8-9.9,5.8-15.6c0-8.8-4.3-15.3-10.2-15.3c-5.9,0-10.2,6.5-10.2,15.3
			c0,5.7,2.4,12.3,5.8,15.6l2,2v0.7h-20.4v-0.7l8.2-4.8V12.9l-8.2-6.1V6.1h13.6l-0.7,23.1h0.7c1.8-4.6,6.5-7.8,11.2-7.8
			c7.3,0,12.6,6.5,12.6,15.3v19.7l8.2,4.8v0.7h-20.4V61.2z"/>
		<path class="st1" d="M1138,49.3v7.1c-3.9,3.7-10.7,6.5-16.3,6.5c-8.7,0-15-6.1-15-14.6V27.9h-11.9v-0.7l20.7-12.9v8.2h22.4v5.4
			h-20.4c-2.4,0-4.1,1.7-4.1,4.1c0,7.3-2.4,10.7-2.4,16.3c0,4.9,4.4,8.5,10.5,8.5C1126.5,56.8,1133.3,53.7,1138,49.3z"/>
		<path class="st1" d="M1166.2,53.4c7.9,0,13.6,2,13.6,4.8s-5.7,4.8-13.6,4.8c-7.9,0-13.6-2-13.6-4.8S1158.3,53.4,1166.2,53.4z
			 M1170.3,6.1l-1.4,36h-5.4l-1.4-36H1170.3z"/>
	</g>
</g>
</svg>
