<?xml version="1.0" encoding="utf-8"?>
<!-- Generator: Adobe Illustrator 25.4.1, SVG Export Plug-In . SVG Version: 6.00 Build 0)  -->
<svg version="1.1" id="Layer_1" xmlns="http://www.w3.org/2000/svg" xmlns:xlink="http://www.w3.org/1999/xlink" x="0px" y="0px"
	 viewBox="0 0 50 50" style="enable-background:new 0 0 50 50;" xml:space="preserve">
<style type="text/css">
	.st0{fill:#FFFFFF;}
</style>
<g>
	<path class="st0" d="M35.8,39.5H14.2c-1.3,0-2.3-1-2.3-2.3V23.3c0-1.3,1-2.3,2.3-2.3h21.6c1.3,0,2.3,1,2.3,2.3v13.9
		C38.1,38.5,37.1,39.5,35.8,39.5z"/>
	<path class="st0" d="M20.6,30.3h-6.4c-1.3,0-2.3-1-2.3-2.3v-6.4c0-1.3,1-2.3,2.3-2.3h6.4c1.3,0,2.3,1,2.3,2.3v6.4
		C23,29.2,21.9,30.3,20.6,30.3z"/>
</g>
</svg>
