<svg id="Layer_1" data-name="Layer 1" xmlns="http://www.w3.org/2000/svg" xmlns:xlink="http://www.w3.org/1999/xlink" viewBox="0 0 1000 1000"><defs><style>.cls-1{fill:url(#radial-gradient);}.cls-2{fill:url(#radial-gradient-2);}.cls-3{fill:url(#radial-gradient-3);}</style><radialGradient id="radial-gradient" cx="500" cy="250" r="395.28" gradientTransform="scale(1 0.8)" gradientUnits="userSpaceOnUse"><stop offset="0" stop-color="#fff"/><stop offset="0.02" stop-color="#fffff4"/><stop offset="0.14" stop-color="#ffffbc"/><stop offset="0.25" stop-color="#ffff8a"/><stop offset="0.37" stop-color="#ffff5f"/><stop offset="0.49" stop-color="#ffff3d"/><stop offset="0.61" stop-color="#ff2"/><stop offset="0.74" stop-color="#ffff0f"/><stop offset="0.87" stop-color="#ffff04"/><stop offset="1" stop-color="#ff0"/></radialGradient><radialGradient id="radial-gradient-2" cy="625" r="395.28" xlink:href="#radial-gradient"/><radialGradient id="radial-gradient-3" cy="1000" r="395.28" xlink:href="#radial-gradient"/></defs><path class="cls-1" d="M500,0C223.86,0,0,89.54,0,200S223.86,400,500,400s500-89.54,500-200S776.14,0,500,0Z"/><path class="cls-2" d="M500,300C223.86,300,0,389.54,0,500S223.86,700,500,700s500-89.54,500-200S776.14,300,500,300Z"/><path class="cls-3" d="M500,600C223.86,600,0,689.54,0,800s223.86,200,500,200,500-89.54,500-200S776.14,600,500,600Z"/></svg>